HIERARCHY
ROOT hip
{
	OFFSET 0.000000 0.000000 0.000000
	CHANNELS 6 Xposition Yposition Zposition Xrotation Zrotation Yrotation 
	JOINT abdomen
	{
		OFFSET 0.000000 3.422050 0.000000
		CHANNELS 3 Xrotation Zrotation Yrotation 
		JOINT chest
		{
			OFFSET 0.000000 8.486693 -0.684411
			CHANNELS 3 Xrotation Zrotation Yrotation 
			JOINT neck
			{
				OFFSET 0.000000 10.266162 -0.273764
				CHANNELS 3 Xrotation Zrotation Yrotation 
				JOINT head
				{
					OFFSET 0.000000 3.148285 0.000000
					CHANNELS 3 Xrotation Zrotation Yrotation 
					End Site
					{
						OFFSET 0.000000 3.148289 0.000000
					}
				}
			}
			JOINT lCollar
			{
				OFFSET 3.422053 6.707223 -0.821293
				CHANNELS 3 Yrotation Zrotation Xrotation 
				JOINT lShldr
				{
					OFFSET 3.285171 0.000000 0.000000
					CHANNELS 3 Zrotation Yrotation Xrotation 
					JOINT lForeArm
					{
						OFFSET 10.129278 0.000000 0.000000
						CHANNELS 3 Yrotation Zrotation Xrotation 
						JOINT lHand
						{
							OFFSET 8.486692 0.000000 0.000000
							CHANNELS 3 Zrotation Yrotation Xrotation 
							End Site
							{
								OFFSET 4.106464 0.000000 0.000000
							}
						}
					}
				}
			}
			JOINT rCollar
			{
				OFFSET -3.558935 6.707223 -0.821293
				CHANNELS 3 Yrotation Zrotation Xrotation 
				JOINT rShldr
				{
					OFFSET -3.148289 0.000000 0.000000
					CHANNELS 3 Zrotation Yrotation Xrotation 
					JOINT rForeArm
					{
						OFFSET -10.266159 0.000000 0.000000
						CHANNELS 3 Yrotation Zrotation Xrotation 
						JOINT rHand
						{
							OFFSET -8.349810 0.000000 0.000000
							CHANNELS 3 Zrotation Yrotation Xrotation 
							End Site
							{
								OFFSET -4.106464 0.000000 0.000000
							}
						}
					}
				}
			}
		}
	}
	JOINT lThigh
	{
		OFFSET 5.338403 -1.642589 1.368821
		CHANNELS 3 Xrotation Zrotation Yrotation 
		JOINT lShin
		{
			OFFSET -2.053232 -20.121670 0.000000
			CHANNELS 3 Xrotation Zrotation Yrotation 
			JOINT lFoot
			{
				OFFSET 0.000000 -19.300380 -1.231939
				CHANNELS 3 Xrotation Yrotation Zrotation 
				End Site
				{
					OFFSET 0.000000 -2.463878 4.653993
				}
			}
		}
	}
	JOINT rThigh
	{
		OFFSET -5.338403 -1.642589 1.368821
		CHANNELS 3 Xrotation Zrotation Yrotation 
		JOINT rShin
		{
			OFFSET 2.053232 -20.121670 0.000000
			CHANNELS 3 Xrotation Zrotation Yrotation 
			JOINT rFoot
			{
				OFFSET 0.000000 -19.300380 -1.231939
				CHANNELS 3 Xrotation Yrotation Zrotation 
				End Site
				{
					OFFSET 0.000000 -2.463878 4.653993
				}
			}
		}
	}
}
MOTION
Frames: 11
Frame Time: 0.033264
0.000000 43.528500 0.000000 0.000000 0.000000 0.000000 0.000000 0.000000 0.000000 0.000000 0.000000 0.000000 0.000000 0.000000 0.000000 0.000000 0.000000 0.000000 0.000000 0.000000 0.000000 0.000000 0.000000 0.000000 0.000000 0.000000 0.000000 0.000000 0.000000 0.000000 0.000000 0.000000 0.000000 0.000000 0.000000 0.000000 0.000000 0.000000 0.000000 0.000000 0.000000 0.000000 0.000000 0.000000 0.000000 0.000000 0.000000 0.000000 0.000000 0.000000 0.000000 0.000000 0.000000 0.000000 0.000000 0.000000 0.000000 0.000000 0.000000 0.000000 
0.000000 18.546413 -28.039886 70.997055 0.000000 0.000000 3.347026 -0.684445 -0.822954 22.946285 -11.105717 -0.391433 17.822420 -8.225605 0.186192 -44.489876 -19.400534 -1.669794 -4.219767 -9.549753 -1.035666 -40.768085 -60.288818 -38.076874 -119.415993 -15.416789 55.551399 -13.207290 11.710944 -31.200291 4.293713 9.607117 -1.279357 38.577934 58.825066 -39.765095 123.986061 -17.675371 54.259026 11.240866 -7.258127 -37.376602 -88.227638 36.072220 -17.393200 114.864029 -12.765610 2.893041 29.204950 5.071393 5.469505 -88.230293 -36.077126 17.394232 114.863838 12.766693 -2.897921 29.204718 -5.075662 -5.472043 
0.000000 18.546413 -28.039886 70.997055 0.000000 0.000000 3.347026 -0.684445 -0.822954 22.965710 -10.439278 -0.393284 17.124933 -7.899044 0.254539 -43.718315 -18.499828 -1.609003 -3.505962 -9.928033 -0.612813 -39.686008 -60.208767 -38.326286 -119.415993 -15.416791 55.551399 -12.232744 12.270913 -31.967327 4.743293 9.158561 -1.648097 38.703953 58.957462 -39.616669 123.126411 -18.118427 54.014160 11.322451 -7.550026 -36.591774 -88.227638 36.072220 -17.393200 114.864029 -12.765610 2.893041 29.204950 5.071393 5.469505 -88.230293 -36.077126 17.394232 114.863838 12.766693 -2.897921 29.204718 -5.075662 -5.472044 
0.000000 18.546413 -28.039886 70.997055 0.000000 0.000000 3.347026 -0.684445 -0.822954 22.985100 -9.772108 -0.394904 16.427374 -7.571209 0.318909 -42.946907 -17.596708 -1.535513 -2.787204 -10.301748 -0.183930 -38.605240 -60.126217 -38.572460 -119.415993 -15.416785 55.551403 -11.258460 12.846749 -32.730389 5.189920 8.706629 -2.013245 38.831139 59.089710 -39.467102 122.260712 -18.558870 53.761139 11.400181 -7.843533 -35.805401 -88.227638 36.072220 -17.393200 114.864029 -12.765610 2.893042 29.204950 5.071394 5.469506 -88.230293 -36.077126 17.394232 114.863838 12.766693 -2.897921 29.204718 -5.075662 -5.472043 
0.000000 18.546413 -28.039886 70.997055 0.000000 0.000000 3.347026 -0.684445 -0.822954 23.004448 -9.104254 -0.396294 15.729764 -7.242178 0.379281 -42.175400 -16.691528 -1.449378 -2.063527 -10.670744 0.250946 -37.526005 -60.041237 -38.815269 -119.415993 -15.416789 55.551399 -10.284767 13.438242 -33.489006 5.633598 8.251401 -2.374794 38.959496 59.221764 -39.316360 121.388939 -18.996506 53.499901 11.474016 -8.138568 -35.017555 -88.227638 36.072224 -17.393204 114.864029 -12.765610 2.893041 29.204950 5.071393 5.469505 -88.230293 -36.077126 17.394232 114.863838 12.766694 -2.897921 29.204718 -5.075662 -5.472044 
0.000000 18.546413 -28.039886 70.997055 0.000000 0.000000 3.347026 -0.684445 -0.822954 23.023764 -8.435758 -0.397454 15.032118 -6.912025 0.435639 -41.403561 -15.784640 -1.350648 -1.334972 -11.034871 0.691772 -36.448498 -59.953838 -39.054615 -119.415993 -15.416789 55.551399 -9.312003 14.045166 -34.242760 6.074328 7.792945 -2.732742 39.089043 59.353668 -39.164459 120.511078 -19.431133 53.230434 11.543903 -8.435046 -34.228249 -88.227638 36.072220 -17.393200 114.864029 -12.765610 2.893041 29.204950 5.071393 5.469505 -88.230293 -36.077129 17.394234 114.863838 12.766694 -2.897920 29.204718 -5.075662 -5.472044 
0.000000 18.546413 -28.039886 70.997055 0.000000 0.000000 3.347026 -0.684445 -0.822954 23.043053 -7.766663 -0.398385 14.334456 -6.580826 0.487967 -40.631157 -14.876415 -1.239364 -0.601587 -11.393971 1.138499 -35.372940 -59.864090 -39.290382 -119.415993 -15.416785 55.551399 -8.340488 14.667265 -34.991215 6.512120 7.331338 -3.087086 39.219776 59.485394 -39.011360 119.627129 -19.862551 52.952690 11.609803 -8.732889 -33.437538 -88.227646 36.072224 -17.393202 114.864029 -12.765610 2.893042 29.204950 5.071393 5.469505 -88.230301 -36.077129 17.394234 114.863838 12.766694 -2.897920 29.204718 -5.075662 -5.472044 
0.000000 18.546413 -28.039886 70.997055 0.000000 0.000000 3.347026 -0.684445 -0.822954 23.062317 -7.097019 -0.399088 13.636793 -6.248657 0.536251 -39.857952 -13.967217 -1.115568 0.136579 -11.747896 1.591072 -34.299480 -59.771957 -39.522430 -119.415993 -15.416789 55.551399 -7.370535 15.304255 -35.733963 6.946976 6.866650 -3.437825 39.351738 59.616966 -38.857075 118.737091 -20.290571 52.666649 11.671665 -9.032005 -32.645458 -88.227631 36.072216 -17.393196 114.864029 -12.765610 2.893041 29.204950 5.071393 5.469505 -88.230293 -36.077122 17.394234 114.863838 12.766693 -2.897921 29.204718 -5.075661 -5.472043 
0.000000 18.546413 -28.039886 70.997055 0.000000 0.000000 3.347026 -0.684445 -0.822954 23.081558 -6.426867 -0.399564 12.939149 -5.915596 0.580477 -39.083702 -13.057414 -0.979302 0.879468 -12.096501 2.049434 -33.228367 -59.677578 -39.750690 -119.415993 -15.416789 55.551399 -6.402437 15.955822 -36.470562 7.378906 6.398956 -3.784958 39.484905 59.748329 -38.701561 117.840958 -20.714985 52.372303 11.729453 -9.332311 -31.852045 -88.227631 36.072216 -17.393196 114.864014 -12.765609 2.893041 29.204950 5.071393 5.469505 -88.230286 -36.077118 17.394230 114.863838 12.766692 -2.897920 29.204714 -5.075662 -5.472043 
0.000000 18.546413 -28.039886 70.997055 0.000000 0.000000 3.347026 -0.684445 -0.822954 23.100782 -5.756255 -0.399814 12.241538 -5.581722 0.620634 -38.308205 -12.147393 -0.830597 1.627017 -12.439636 2.513519 -32.159744 -59.580948 -39.975052 -119.415985 -15.416785 55.551399 -5.436487 16.621641 -37.200626 7.807918 5.928330 -4.128486 39.619324 59.879524 -38.544819 116.938728 -21.135588 52.069618 11.783128 -9.633719 -31.057352 -88.227638 36.072220 -17.393200 114.864029 -12.765610 2.893041 29.204947 5.071393 5.469505 -88.230293 -36.077126 17.394232 114.863838 12.766693 -2.897921 29.204718 -5.075662 -5.472043 
0.000000 18.546413 -28.039886 70.997055 0.000000 0.000000 3.347026 -0.684445 -0.822954 23.120003 -5.085229 -0.399837 11.543976 -5.247111 0.656711 -37.531219 -11.237525 -0.669490 2.379158 -12.777145 2.983255 -31.093801 -59.482075 -40.195389 -119.415993 -15.416789 55.551399 -4.472953 17.301344 -37.923748 8.234024 5.454850 -4.468412 39.755005 60.010548 -38.386841 116.030464 -21.552179 51.758606 11.832650 -9.936145 -30.261414 -88.227638 36.072220 -17.393200 114.864029 -12.765609 2.893042 29.204950 5.071393 5.469505 -88.230293 -36.077126 17.394232 114.863838 12.766693 -2.897921 29.204718 -5.075662 -5.472043 
